{"accessors":[{"bufferView":0,"byteOffset":0,"componentType":5126,"count":16,"max":[-1.5,2.5,0.5],"min":[-2.5,0,-0.5],"normalized":false,"type":"VEC3"},{"bufferView":1,"byteOffset":0,"componentType":5126,"count":16,"max":[1,0.0000152590218931437,0.000047936900955392,1],"min":[1,0.000000000731470217729679,0.00000446887588623213,1],"normalized":false,"type":"VEC4"},{"bufferView":2,"byteOffset":0,"componentType":5126,"count":16,"max":[0.0000152586571857682,0,1],"min":[-0.00004793690096,-1,0.0000239175878959941],"normalized":false,"type":"VEC3"},{"bufferView":3,"byteOffset":0,"componentType":5126,"count":16,"max":[1,1],"min":[0,0],"normalized":false,"type":"VEC2"},{"bufferView":4,"byteOffset":0,"componentType":5123,"count":24,"max":[15],"min":[0],"normalized":false,"type":"SCALAR"},{"bufferView":5,"byteOffset":0,"componentType":5126,"count":4,"max":[-1.5,0,0.5],"min":[-2.5,0,-0.5],"normalized":false,"type":"VEC3"},{"bufferView":6,"byteOffset":0,"componentType":5126,"count":4,"max":[1,0.0000152590218931437,-0.00000000036562,1],"min":[1,-0.00003051814565,-0.00001525865719,1],"normalized":false,"type":"VEC4"},{"bufferView":7,"byteOffset":0,"componentType":5126,"count":4,"max":[0.0000305181456496939,1,0.0000239175878959941],"min":[-0.00001525865719,1,0.0000239175878959941],"normalized":false,"type":"VEC3"},{"bufferView":8,"byteOffset":0,"componentType":5126,"count":4,"max":[0.999893188476563,0.999893188476563],"min":[0.0000915541313588619,0.0000915541313588619],"normalized":false,"type":"VEC2"},{"bufferView":9,"byteOffset":0,"componentType":5123,"count":6,"max":[3],"min":[0],"normalized":false,"type":"SCALAR"},{"bufferView":10,"byteOffset":0,"componentType":5126,"count":4,"max":[-1.5,2.5,0.5],"min":[-2.5,2.5,-0.5],"normalized":false,"type":"VEC3"},{"bufferView":11,"byteOffset":0,"componentType":5126,"count":4,"max":[1,0.0000152590218931437,-0.00001525865719,1],"min":[1,0.0000152590218931437,-0.00001525865719,1],"normalized":false,"type":"VEC4"},{"bufferView":12,"byteOffset":0,"componentType":5126,"count":4,"max":[-0.00001525865719,1,0.0000239175878959941],"min":[-0.00001525865719,1,0.0000239175878959941],"normalized":false,"type":"VEC3"},{"bufferView":13,"byteOffset":0,"componentType":5126,"count":4,"max":[1,1],"min":[-0.00001525878906,-0.00001525878906],"normalized":false,"type":"VEC2"},{"bufferView":14,"byteOffset":0,"componentType":5123,"count":6,"max":[3],"min":[0],"normalized":false,"type":"SCALAR"},{"bufferView":15,"byteOffset":0,"componentType":5126,"count":4,"max":[-1.5,0,0.5],"min":[-2.5,0,-0.5],"normalized":false,"type":"VEC3"},{"bufferView":16,"byteOffset":0,"componentType":5126,"count":4,"max":[0.0000737011432647705,0.0000275373458862305,1,1],"min":[0.0000737011432647705,0.0000275373458862305,1,1],"normalized":false,"type":"VEC4"},{"bufferView":17,"byteOffset":0,"componentType":5126,"count":4,"max":[0.0000178813934326172,-1,0.0000275671482086182],"min":[0.0000178813934326172,-1,0.0000275671482086182],"normalized":false,"type":"VEC3"},{"bufferView":18,"byteOffset":0,"componentType":5126,"count":4,"max":[1,1],"min":[0,0],"normalized":false,"type":"VEC2"},{"bufferView":19,"byteOffset":0,"componentType":5123,"count":6,"max":[3],"min":[0],"normalized":false,"type":"SCALAR"}],"asset":{"generator":"Godot Engine v4.3.stable.mono.official@77dcf97d82cbfe4e4615475fa52ca03da645dbd8","version":"2.0"},"bufferViews":[{"buffer":0,"byteLength":192,"byteOffset":0,"byteStride":12,"target":34962},{"buffer":0,"byteLength":256,"byteOffset":192,"byteStride":16,"target":34962},{"buffer":0,"byteLength":192,"byteOffset":448,"byteStride":12,"target":34962},{"buffer":0,"byteLength":128,"byteOffset":640,"byteStride":8,"target":34962},{"buffer":0,"byteLength":48,"byteOffset":768,"target":34963},{"buffer":0,"byteLength":48,"byteOffset":816,"byteStride":12,"target":34962},{"buffer":0,"byteLength":64,"byteOffset":864,"byteStride":16,"target":34962},{"buffer":0,"byteLength":48,"byteOffset":928,"byteStride":12,"target":34962},{"buffer":0,"byteLength":32,"byteOffset":976,"byteStride":8,"target":34962},{"buffer":0,"byteLength":12,"byteOffset":1008,"target":34963},{"buffer":0,"byteLength":48,"byteOffset":1020,"byteStride":12,"target":34962},{"buffer":0,"byteLength":64,"byteOffset":1068,"byteStride":16,"target":34962},{"buffer":0,"byteLength":48,"byteOffset":1132,"byteStride":12,"target":34962},{"buffer":0,"byteLength":32,"byteOffset":1180,"byteStride":8,"target":34962},{"buffer":0,"byteLength":12,"byteOffset":1212,"target":34963},{"buffer":0,"byteLength":48,"byteOffset":1224,"byteStride":12,"target":34962},{"buffer":0,"byteLength":64,"byteOffset":1272,"byteStride":16,"target":34962},{"buffer":0,"byteLength":48,"byteOffset":1336,"byteStride":12,"target":34962},{"buffer":0,"byteLength":32,"byteOffset":1384,"byteStride":8,"target":34962},{"buffer":0,"byteLength":12,"byteOffset":1416,"target":34963}],"buffers":[{"byteLength":1428,"uri":"Node3D0.bin"}],"extensions":{"OMI_physics_shape":{"shapes":[{"trimesh":{"mesh":0},"type":"trimesh"},{"trimesh":{"mesh":1},"type":"trimesh"}]}},"extensionsUsed":["GODOT_single_root","OMI_physics_body","OMI_physics_shape"],"images":[{"uri":"textures%2FWalls_albedo000.png"},{"uri":"textures%2FGround_albedo000.png"}],"materials":[{"doubleSided":true,"extensions":{},"name":"Walls","pbrMetallicRoughness":{"baseColorFactor":[0.99999988079071,0.99999988079071,0.99999988079071,1],"baseColorTexture":{"index":0},"metallicFactor":0,"roughnessFactor":0.5}},{"doubleSided":true,"extensions":{},"name":"Ground2","pbrMetallicRoughness":{"baseColorFactor":[0.99999988079071,0.99999988079071,0.99999988079071,1],"baseColorTexture":{"index":1},"metallicFactor":0,"roughnessFactor":0.5}}],"meshes":[{"extras":{"targetNames":[]},"primitives":[{"attributes":{"NORMAL":2,"POSITION":0,"TANGENT":1,"TEXCOORD_0":3},"indices":4,"material":0,"mode":4},{"attributes":{"NORMAL":7,"POSITION":5,"TANGENT":6,"TEXCOORD_0":8},"indices":9,"material":1,"mode":4}]},{"extras":{"targetNames":[]},"primitives":[{"attributes":{"NORMAL":12,"POSITION":10,"TANGENT":11,"TEXCOORD_0":13},"indices":14,"material":0,"mode":4},{"attributes":{"NORMAL":17,"POSITION":15,"TANGENT":16,"TEXCOORD_0":18},"indices":19,"material":1,"mode":4}]}],"nodes":[{"children":[1],"name":"Node3D"},{"children":[2,5],"name":"Terrain","translation":[1.35179114341736,-0.00000011920929,0.175858020782471]},{"children":[3],"mesh":0,"name":"Wall"},{"children":[4],"extensions":{"OMI_physics_body":{"motion":{"type":"static"}}},"name":"StaticBody3D"},{"extensions":{"OMI_physics_body":{"collider":{"shape":0}}},"name":"CollisionShape3D"},{"children":[6],"mesh":1,"name":"Ground","translation":[2,0,0]},{"children":[7],"extensions":{"OMI_physics_body":{"motion":{"type":"static"}}},"name":"StaticBody3D2"},{"extensions":{"OMI_physics_body":{"collider":{"shape":1}}},"name":"CollisionShape3D2"}],"samplers":[{"magFilter":9729,"minFilter":9987,"wrapS":10497,"wrapT":10497}],"scene":0,"scenes":[{"nodes":[0]}],"textures":[{"sampler":0,"source":0},{"sampler":0,"source":1}]}